<svg width="8" height="14" viewBox="0 0 8 14" fill="none" xmlns="http://www.w3.org/2000/svg">
<path d="M7.13905 9.09391C7.13123 9.00501 7.11456 8.9176 7.09446 8.83053C7.07959 8.74232 7.04528 8.65898 7.02176 8.57271C6.98779 8.49036 6.95835 8.40539 6.91752 8.32616C6.87666 8.24674 6.83761 8.16619 6.78696 8.0917C6.74072 8.01327 6.68811 7.94237 6.63468 7.87293C6.52571 7.72996 6.39908 7.6035 6.26723 7.48356C6.13275 7.36691 5.9934 7.25645 5.84781 7.15514C5.70321 7.05289 5.55402 6.95644 5.4019 6.86597C5.25059 6.77405 5.09604 6.68753 4.93966 6.60469C4.79556 6.52497 4.64671 6.45445 4.49965 6.37987L4.52516 2.57373L4.70406 2.58647C4.7918 2.59349 4.87854 2.60853 4.96565 2.61909C5.05341 2.62849 5.13786 2.65198 5.22416 2.6676C5.3111 2.682 5.39375 2.71164 5.47809 2.73369C5.56336 2.75412 5.64278 2.79039 5.72513 2.81883C5.80814 2.84581 5.8833 2.89015 5.96272 2.92479C6.04177 2.96092 6.11304 3.01043 6.18883 3.05222C6.22676 3.07331 6.2596 3.10165 6.29537 3.12583L6.40024 3.20146L6.40287 3.20351C6.41887 3.21487 6.43834 3.22156 6.45943 3.22173C6.513 3.22206 6.55695 3.17891 6.55712 3.12517L6.56563 1.85994V1.85447C6.56579 1.82163 6.54893 1.78984 6.51891 1.77228L6.39767 1.70168C6.35781 1.67628 6.31532 1.65986 6.27334 1.64123C6.18983 1.60159 6.10455 1.57251 6.01828 1.54572C5.93297 1.51443 5.8454 1.49859 5.7588 1.47562C5.67219 1.45218 5.58462 1.44148 5.49738 1.42393C5.41014 1.40588 5.32257 1.39867 5.23497 1.38578C5.14773 1.37279 5.06016 1.36536 4.97258 1.35784C4.83614 1.34363 4.70006 1.33694 4.56361 1.32989L4.57163 0.133296C4.57213 0.0630284 4.51543 0.00561459 4.44516 0.00511702H4.44351L3.6694 3.13341e-06C3.59629 -0.000494434 3.53672 0.0583291 3.53608 0.131444V0.133324L3.52806 1.35286L3.37913 1.3781C3.28959 1.39786 3.20094 1.42213 3.11157 1.44419C3.02342 1.46976 2.9369 1.5026 2.84958 1.53171C2.76322 1.5643 2.67971 1.60499 2.5951 1.64151C2.51209 1.68178 2.43228 1.72963 2.35085 1.77358C2.27185 1.82179 2.1966 1.87603 2.11926 1.92728C2.04435 1.98347 1.9717 2.04564 1.89826 2.10513C1.83103 2.166 1.77041 2.22742 1.70619 2.28862C1.63496 2.36411 1.58153 2.42987 1.51828 2.50128C1.46095 2.57422 1.40857 2.65135 1.35334 2.72665C1.30383 2.80565 1.25808 2.88742 1.21045 2.96775C1.17073 3.05253 1.13048 3.13742 1.0933 3.22336C1.06339 3.31209 1.02959 3.39991 1.00377 3.48994C0.983091 3.58144 0.956969 3.67064 0.941433 3.76468C0.929492 3.85814 0.910943 3.95807 0.906051 4.04661L0.899444 4.17855L0.895933 4.24464C0.895685 4.2591 0.894358 4.25879 0.894717 4.2855L0.895712 4.32013C0.899223 4.50517 0.909423 4.69193 0.946934 4.87575C0.978391 5.06054 1.03379 5.24191 1.10323 5.41721C1.172 5.5855 1.27472 5.77577 1.37045 5.9118C1.42568 5.99743 1.49036 6.06505 1.55043 6.142C1.61685 6.20876 1.68292 6.27632 1.75106 6.34062L1.96305 6.51947L2.18322 6.68211C2.33329 6.78384 2.48337 6.88659 2.63899 6.97615C2.79258 7.07077 2.94967 7.15621 3.10696 7.24149C3.22673 7.30753 3.34869 7.36796 3.47035 7.42941L3.44707 10.8805C3.41349 10.8786 3.37968 10.8771 3.34601 10.8745C3.23848 10.8576 3.13001 10.8436 3.02314 10.8253L2.70976 10.7526L2.37899 10.6492C2.33813 10.6381 2.27923 10.6113 2.23022 10.5933L2.0763 10.5328C1.97256 10.4944 1.87973 10.4397 1.78066 10.3941C1.68098 10.3488 1.59717 10.2846 1.50429 10.2315C1.45675 10.206 1.41982 10.1695 1.37783 10.1386L1.25462 10.0426L1.24467 10.0345C1.20368 10.0028 1.15246 9.98367 1.09673 9.98334C0.962248 9.98234 0.852783 10.0907 0.851982 10.2246L0.843247 11.5197L0.843081 11.5275C0.842749 11.6079 0.883771 11.6865 0.958019 11.7308L1.11365 11.8231C1.16603 11.8524 1.21601 11.8875 1.27074 11.9118C1.37962 11.9615 1.48527 12.0215 1.59753 12.0618C1.70962 12.1023 1.81931 12.1525 1.93427 12.1821C2.04858 12.2144 2.16139 12.2537 2.27732 12.2752C2.39275 12.2989 2.50769 12.3295 2.62396 12.3435C2.74014 12.3585 2.85621 12.3832 2.97247 12.3901C3.08866 12.3991 3.20523 12.4135 3.32132 12.4179L3.3987 12.4203L3.38996 13.7154C3.38916 13.8688 3.51258 13.9939 3.6657 13.9951H3.66937L4.44326 14.0001C4.59963 14.0011 4.72692 13.8755 4.72822 13.7193V13.7155L4.73867 12.1008L4.7392 12.0445C4.7753 12.0367 4.80977 12.0269 4.84524 12.0183C4.8838 12.0109 4.92233 12.0027 4.96042 11.9923C5.04667 11.9736 5.12918 11.9426 5.21349 11.9161C5.29813 11.8913 5.37968 11.8575 5.46086 11.8235C5.54354 11.7923 5.6231 11.7539 5.70119 11.7125L5.81884 11.6521L5.93159 11.5823C5.96902 11.5588 6.00722 11.5364 6.04368 11.5117L6.15005 11.4318C6.22311 11.3808 6.28859 11.322 6.35297 11.2619C6.42015 11.2052 6.47977 11.1377 6.53876 11.0725C6.60165 11.0096 6.65102 10.9358 6.70511 10.8652C6.80966 10.722 6.89317 10.5644 6.96504 10.4018C6.99724 10.3191 7.02535 10.2346 7.05394 10.1507C7.07353 10.0639 7.09805 9.97847 7.1134 9.89073C7.12434 9.80264 7.14217 9.71377 7.14706 9.62603C7.14986 9.53732 7.15964 9.45185 7.15655 9.36038C7.15279 9.27151 7.15279 9.18217 7.13905 9.09391ZM4.93101 8.03025L5.04769 8.12011L5.15552 8.22062C5.22676 8.28777 5.30059 8.35215 5.35978 8.4299C5.4215 8.50506 5.48884 8.57564 5.53492 8.66047L5.61152 8.78251C5.6375 8.82271 5.65074 8.86945 5.67084 8.91208C5.68878 8.95603 5.7094 8.99915 5.7254 9.0428L5.75661 9.17648C5.78503 9.25979 5.7816 9.36453 5.78849 9.46225L5.79025 9.49951L5.79122 9.51797C5.79025 9.5083 5.79025 9.52547 5.78976 9.52793L5.7842 9.59852C5.78227 9.6459 5.77441 9.69198 5.7669 9.7382C5.75249 9.83053 5.72817 9.9199 5.6963 10.0055C5.66525 10.0916 5.6221 10.1714 5.57459 10.2473C5.52245 10.3205 5.46659 10.3903 5.40058 10.4509C5.3349 10.5119 5.2643 10.5674 5.18621 10.6138C5.14828 10.6382 5.10892 10.6607 5.06723 10.6802C5.02737 10.7015 4.98588 10.7207 4.9424 10.7372C4.85842 10.7736 4.76952 10.802 4.67999 10.827C4.66172 10.8324 4.64256 10.8363 4.62379 10.8411L4.73179 7.88324C4.80062 7.92896 4.86517 7.98057 4.93101 8.03025ZM3.18024 5.66611C3.1014 5.60737 3.02298 5.54813 2.95534 5.47911C2.88523 5.4121 2.81195 5.35143 2.75355 5.26963L2.66075 5.15411C2.63651 5.12069 2.61492 5.07251 2.59181 5.03271C2.57072 4.99014 2.5428 4.95135 2.52701 4.90632L2.48223 4.77099C2.44525 4.68297 2.44074 4.58782 2.423 4.49683C2.40102 4.40876 2.41125 4.30305 2.40528 4.20633L2.40323 4.13238C2.40226 4.11851 2.40611 4.08805 2.40724 4.06662C2.41075 4.01966 2.41329 3.97258 2.42211 3.92675C2.43535 3.83442 2.45595 3.74343 2.48707 3.65707C2.50081 3.61303 2.51803 3.57055 2.5378 3.52939C2.55518 3.48707 2.57774 3.44762 2.60071 3.40831C2.64604 3.32931 2.69417 3.26518 2.76231 3.18576C2.82039 3.12498 2.89466 3.06444 2.95838 3.00351C3.03321 2.95334 3.11049 2.90721 3.18615 2.85997C3.27063 2.82704 3.35306 2.79069 3.43712 2.7594L3.4908 2.74691L3.38034 5.8093C3.31176 5.76471 3.24534 5.716 3.18024 5.66611Z" fill="white"/>
</svg>
