<svg width="12" height="12" viewBox="0 0 12 12" fill="none" xmlns="http://www.w3.org/2000/svg">
<path d="M10.3806 9.50086C9.67181 10.2465 8.76428 10.6571 7.82516 10.6571C6.28596 10.6571 4.95323 9.57625 4.326 8.01379H8.6014C8.97213 8.01379 9.27271 7.71321 9.27271 7.34248C9.27271 6.97174 8.97213 6.67116 8.6014 6.67116H3.98486C3.95846 6.45169 3.94404 6.22781 3.94404 5.99982C3.94404 5.74266 3.96215 5.49058 3.99592 5.24457H8.6014C8.97213 5.24457 9.27271 4.94399 9.27271 4.57326C9.27271 4.20252 8.97213 3.90191 8.6014 3.90191H4.36172C5.00239 2.3852 6.31383 1.34249 7.82516 1.34249C8.76428 1.34249 9.67181 1.75321 10.3806 2.49873C10.6358 2.76728 11.0605 2.77832 11.3296 2.52291C11.5984 2.26738 11.6091 1.84247 11.3539 1.57378C10.3892 0.558902 9.13604 0 7.82532 0C5.58728 0 3.67418 1.62546 2.9318 3.90211H1.13284C0.762105 3.90211 0.461525 4.20269 0.461525 4.57342C0.461525 4.94416 0.762105 5.24474 1.13284 5.24474H2.64414C2.61694 5.49247 2.60138 5.74405 2.60138 5.99999C2.60138 6.22714 2.61325 6.45072 2.63496 6.67133H1.13284C0.762105 6.67133 0.461525 6.97191 0.461525 7.34264C0.461525 7.71338 0.762105 8.01396 1.13284 8.01396H2.90515C3.62729 10.3346 5.55971 12 7.82516 12C9.13601 12 10.3889 11.4409 11.3536 10.4262C11.6089 10.1574 11.5984 9.73259 11.3295 9.4771C11.0609 9.22157 10.6358 9.23225 10.3806 9.50086Z" fill="#F3F3F3" fill-opacity="0.4"/>
</svg>
