<svg width="10" height="12" viewBox="0 0 10 12" fill="none" xmlns="http://www.w3.org/2000/svg">
<path d="M8.68505 6.72649H5.03919C5.40607 6.44396 5.78621 6.18386 6.11356 5.93302C6.19475 5.87101 6.27376 5.80723 6.35175 5.74295H8.68502C9.01643 5.74295 9.28494 5.47441 9.28494 5.14307C9.28494 4.81172 9.01646 4.54318 8.68502 4.54318H7.46081C7.62772 4.28758 7.77013 4.01341 7.87491 3.71086C8.14472 2.93079 8.01015 2.03255 7.55891 1.34989C6.4209 -0.371919 4.08283 -0.24463 2.45473 0.610682C1.76966 0.97063 2.37606 2.00621 3.06031 1.64675C3.86844 1.22221 4.76566 1.03055 5.64944 1.32112C6.25402 1.51988 6.75615 2.06871 6.80854 2.71391C6.86764 3.44527 6.42472 4.05864 5.91373 4.54352H1.31496C0.983645 4.54352 0.71505 4.81209 0.71505 5.14341C0.71505 5.47475 0.983616 5.74329 1.31496 5.74329H4.37233C4.09314 5.9495 3.81888 6.16183 3.56213 6.39743C3.44973 6.50085 3.34428 6.61118 3.24511 6.72683H1.31496C0.983645 6.72683 0.71505 6.99531 0.71505 7.32674C0.71505 7.65798 0.983616 7.92665 1.31496 7.92665H2.54529C2.15544 9.00942 2.27822 10.2387 3.15554 11.1437C4.36904 12.3957 6.45066 12.0887 7.85953 11.4023C8.55513 11.0633 7.94655 10.0289 7.25392 10.3662C6.16326 10.8978 4.16428 11.1828 3.64646 9.72277C3.39754 9.0208 3.5282 8.43482 3.85006 7.9268H8.685C9.0164 7.9268 9.28491 7.65814 9.28491 7.32688C9.28494 6.99548 9.01646 6.72649 8.68505 6.72649Z" fill="#F3F3F3" fill-opacity="0.4"/>
</svg>
