<svg width="8" height="10" viewBox="0 0 8 10" fill="none" xmlns="http://www.w3.org/2000/svg">
<path d="M7.07087 5.60541H4.03265C4.33838 5.36997 4.65517 5.15322 4.92796 4.94419C4.99562 4.89251 5.06146 4.83936 5.12645 4.78579H7.07084C7.34701 4.78579 7.57077 4.56201 7.57077 4.28589C7.57077 4.00977 7.34704 3.78598 7.07084 3.78598H6.05067C6.18976 3.57299 6.30843 3.34451 6.39575 3.09239C6.62059 2.44233 6.50845 1.69379 6.13241 1.12491C5.18407 -0.309933 3.23569 -0.203859 1.87893 0.508902C1.30804 0.808859 1.81338 1.67185 2.38358 1.37229C3.05702 1.0185 3.80471 0.858792 4.54119 1.10093C5.04501 1.26657 5.46345 1.72393 5.50711 2.26159C5.55636 2.87106 5.18726 3.3822 4.76143 3.78627H0.929127C0.653028 3.78627 0.429199 4.01007 0.429199 4.28617C0.429199 4.5623 0.653005 4.78608 0.929127 4.78608H3.47693C3.24428 4.95792 3.01573 5.13486 2.80176 5.3312C2.7081 5.41738 2.62022 5.50932 2.53758 5.60569H0.929127C0.653028 5.60569 0.429199 5.82942 0.429199 6.10562C0.429199 6.38165 0.653005 6.60555 0.929127 6.60555H1.9544C1.62952 7.50785 1.73184 8.53222 2.46294 9.2864C3.47419 10.3297 5.20887 10.0739 6.38293 9.5019C6.9626 9.21945 6.45545 8.35743 5.87826 8.63848C4.96938 9.08149 3.30356 9.31903 2.87204 8.10231C2.66461 7.51733 2.77349 7.02902 3.04171 6.60566H7.07082C7.34699 6.60566 7.57075 6.38179 7.57075 6.10574C7.57077 5.82957 7.34704 5.60541 7.07087 5.60541Z" fill="#F3F3F3" fill-opacity="0.6"/>
</svg>
