<svg width="26" height="26" viewBox="0 0 26 26" fill="none" xmlns="http://www.w3.org/2000/svg">
<g clip-path="url(#clip0_4241_368)">
<path d="M3.71429 0C1.66623 0 0 1.66623 0 3.71429C0 5.76235 1.66623 7.42859 3.71429 7.42859C5.76235 7.42859 7.42859 5.76235 7.42859 3.71429C7.42859 1.66623 5.76235 0 3.71429 0Z" fill="#3A6AF5"/>
<path d="M22.2856 0C20.2375 0 18.5713 1.66623 18.5713 3.71429C18.5713 5.76235 20.2375 7.42859 22.2856 7.42859C24.3336 7.42859 25.9999 5.76235 25.9999 3.71429C25.9999 1.66623 24.3336 0 22.2856 0Z" fill="#F3F3F3"/>
<path d="M12.9999 0C10.9519 0 9.28564 1.66623 9.28564 3.71429C9.28564 5.76235 10.9519 7.42859 12.9999 7.42859C15.048 7.42859 16.7142 5.76235 16.7142 3.71429C16.7142 1.66623 15.048 0 12.9999 0Z" fill="#3A6AF5"/>
<path d="M22.2856 18.5713C20.2375 18.5713 18.5713 20.2375 18.5713 22.2856C18.5713 24.3336 20.2375 25.9999 22.2856 25.9999C24.3336 25.9999 25.9999 24.3336 25.9999 22.2856C25.9999 20.2375 24.3336 18.5713 22.2856 18.5713Z" fill="#3A6AF5"/>
<path d="M22.2856 9.28564C20.2375 9.28564 18.5713 10.9519 18.5713 12.9999C18.5713 15.048 20.2375 16.7142 22.2856 16.7142C24.3336 16.7142 25.9999 15.048 25.9999 12.9999C25.9999 10.9519 24.3336 9.28564 22.2856 9.28564Z" fill="#F3F3F3"/>
<path d="M12.9999 9.28564C10.9519 9.28564 9.28564 10.9519 9.28564 12.9999C9.28564 15.048 10.9519 16.7142 12.9999 16.7142C15.048 16.7142 16.7142 15.048 16.7142 12.9999C16.7142 10.9519 15.048 9.28564 12.9999 9.28564Z" fill="#3A6AF5"/>
</g>
<defs>
<clipPath id="clip0_4241_368">
<rect width="26" height="26" fill="white"/>
</clipPath>
</defs>
</svg>
