<svg width="16" height="16" viewBox="0 0 16 16" fill="none" xmlns="http://www.w3.org/2000/svg">
<path d="M9.6275 9.2825L10.6775 7.4675C10.745 7.355 10.715 7.2125 10.6175 7.13L9.5075 6.26C9.53 6.095 9.545 5.9225 9.545 5.75C9.545 5.5775 9.53 5.405 9.5075 5.2325L10.6175 4.3625C10.715 4.28 10.745 4.1375 10.6775 4.025L9.6275 2.21C9.56 2.0975 9.425 2.0525 9.305 2.0975L8 2.6225C7.73 2.4125 7.4375 2.24 7.115 2.105L6.92 0.7175C6.8975 0.5975 6.785 0.5 6.6575 0.5H4.5575C4.43 0.5 4.3175 0.5975 4.295 0.725L4.1 2.1125C3.785 2.2475 3.485 2.42 3.215 2.63L1.91 2.105C1.79 2.06 1.655 2.105 1.5875 2.2175L0.5375 4.0325C0.47 4.145 0.5 4.2875 0.5975 4.37L1.7075 5.24C1.685 5.405 1.67 5.5775 1.67 5.75C1.67 5.9225 1.685 6.095 1.7075 6.2675L0.5975 7.1375C0.5 7.22 0.47 7.3625 0.5375 7.475L1.5875 9.29C1.655 9.4025 1.79 9.4475 1.91 9.4025L3.215 8.8775C3.485 9.0875 3.7775 9.26 4.1 9.395L4.295 10.7825C4.3175 10.9025 4.43 11 4.5575 11H6.6575C6.785 11 6.8975 10.9025 6.92 10.775L7.115 9.3875C7.43 9.2525 7.73 9.08 8 8.87L9.305 9.395C9.425 9.44 9.56 9.395 9.6275 9.2825ZM5.6075 7.25C4.7825 7.25 4.1075 6.575 4.1075 5.75C4.1075 4.925 4.7825 4.25 5.6075 4.25C6.4325 4.25 7.1075 4.925 7.1075 5.75C7.1075 6.575 6.4325 7.25 5.6075 7.25Z" fill="#3A6AF5"/>
<path d="M15.44 13.0025L14.72 12.4475C14.735 12.3425 14.75 12.23 14.75 12.1175C14.75 12.005 14.7425 11.8925 14.72 11.7875L15.4325 11.2325C15.4925 11.18 15.515 11.09 15.47 11.015L14.795 9.8525C14.7575 9.7775 14.6675 9.755 14.585 9.7775L13.7525 10.115C13.58 9.98 13.3925 9.8675 13.1825 9.785L13.055 8.9C13.0475 8.81 12.9725 8.75 12.8975 8.75H11.555C11.4725 8.75 11.3975 8.81 11.39 8.8925L11.2625 9.7775C11.06 9.8675 10.865 9.9725 10.6925 10.1075L9.86 9.77C9.785 9.74 9.695 9.77 9.65 9.845L8.975 11.0075C8.9375 11.0825 8.945 11.1725 9.0125 11.225L9.725 11.78C9.71 11.885 9.7025 11.9975 9.7025 12.11C9.7025 12.2225 9.71 12.335 9.725 12.44L9.0125 12.995C8.9525 13.0475 8.93 13.1375 8.975 13.2125L9.65 14.375C9.6875 14.45 9.7775 14.4725 9.86 14.45L10.6925 14.1125C10.865 14.2475 11.0525 14.36 11.2625 14.4425L11.39 15.3275C11.405 15.41 11.4725 15.47 11.555 15.47H12.8975C12.98 15.47 13.055 15.41 13.0625 15.3275L13.19 14.4425C13.3925 14.3525 13.5875 14.2475 13.7525 14.1125L14.5925 14.45C14.6675 14.48 14.7575 14.45 14.8025 14.375L15.4775 13.2125C15.5225 13.145 15.5 13.055 15.44 13.0025ZM12.2225 13.1225C11.6675 13.1225 11.21 12.6725 11.21 12.11C11.21 11.5475 11.66 11.0975 12.2225 11.0975C12.785 11.0975 13.235 11.5475 13.235 12.11C13.235 12.6725 12.7775 13.1225 12.2225 13.1225Z" fill="#3A6AF5"/>
</svg>
