<svg width="16" height="16" viewBox="0 0 16 16" fill="none" xmlns="http://www.w3.org/2000/svg">
<path d="M10.6175 6.2225C10.4825 4.13 9.635 2.09 8.045 0.5C6.44 2.105 5.555 4.145 5.3825 6.2225C6.3425 6.7325 7.2275 7.3925 8 8.195C8.7725 7.4 9.6575 6.74 10.6175 6.2225ZM5.7425 8.21C5.6375 8.135 5.5175 8.0675 5.405 7.9925C5.5175 8.075 5.6375 8.135 5.7425 8.21ZM10.5575 8.0225C10.46 8.09 10.355 8.1425 10.2575 8.2175C10.355 8.1425 10.46 8.09 10.5575 8.0225ZM8 10.5875C6.3875 8.1275 3.635 6.5 0.5 6.5C0.5 10.49 3.02 13.865 6.5225 15.1175C6.995 15.29 7.49 15.4175 8 15.5C8.51 15.41 8.9975 15.2825 9.4775 15.1175C12.98 13.865 15.5 10.49 15.5 6.5C12.365 6.5 9.6125 8.1275 8 10.5875Z" fill="#3A6AF5"/>
</svg>
