<svg width="16" height="12" viewBox="0 0 16 12" fill="none" xmlns="http://www.w3.org/2000/svg">
<path d="M8 0H2.75C1.505 0 0.5 1.005 0.5 2.25V8.25C0.5 9.495 1.505 10.5 2.75 10.5L2 11.25V12H2.75L4.25 10.4775L5.75 10.5V6.75H2V1.485L8.75 1.5V3H10.25V2.25C10.25 1.005 9.245 0 8 0ZM2.75 7.5C3.1625 7.5 3.5 7.8375 3.5 8.25C3.5 8.6625 3.1625 9 2.75 9C2.3375 9 2 8.6625 2 8.25C2 7.8375 2.3375 7.5 2.75 7.5ZM14.4275 4.245C14.3225 3.945 14.0375 3.75 13.7 3.75H8.3075C7.9625 3.75 7.685 3.945 7.5725 4.245L6.5 7.3275L6.5075 11.46C6.5075 11.745 6.74 12 7.025 12H7.49C7.775 12 8 11.715 8 11.43V10.5H14V11.43C14 11.715 14.2325 12 14.5175 12H14.975C15.26 12 15.4925 11.745 15.4925 11.46L15.5 10.4325V7.3275L14.4275 4.245ZM8.3075 4.5H13.7L14.4725 6.75H7.535L8.3075 4.5ZM8 9C7.5875 9 7.25 8.6625 7.25 8.25C7.25 7.8375 7.5875 7.5 8 7.5C8.4125 7.5 8.75 7.8375 8.75 8.25C8.75 8.6625 8.4125 9 8 9ZM14 9C13.5875 9 13.25 8.6625 13.25 8.25C13.25 7.8375 13.5875 7.5 14 7.5C14.4125 7.5 14.75 7.8375 14.75 8.25C14.75 8.6625 14.4125 9 14 9Z" fill="#3A6AF5"/>
</svg>
