<svg width="16" height="13" viewBox="0 0 16 13" fill="none" xmlns="http://www.w3.org/2000/svg">
<path d="M15.2 11.6501L8.75 6.81262V6.13012C9.9875 5.76262 10.85 4.50262 10.5725 3.09262C10.3775 2.11012 9.5975 1.29262 8.615 1.06762C6.905 0.677618 5.375 1.97512 5.375 3.62512H6.875C6.875 3.00262 7.3775 2.50012 8 2.50012C8.6225 2.50012 9.125 3.00262 9.125 3.62512C9.125 4.25512 8.6075 4.76512 7.9775 4.75012C7.5725 4.74262 7.25 5.08762 7.25 5.49262V6.81262L0.8 11.6501C0.2225 12.0851 0.53 13.0001 1.25 13.0001H8H14.75C15.47 13.0001 15.7775 12.0851 15.2 11.6501ZM3.5 11.5001L8 8.12512L12.5 11.5001H3.5Z" fill="#3A6AF5"/>
</svg>
